<?xml version="1.0" encoding="UTF-8"?>
<svg width="242px" height="283px" viewBox="0 0 242 283" version="1.1" xmlns="http://www.w3.org/2000/svg" xmlns:xlink="http://www.w3.org/1999/xlink">
    <title>Robot-Edit</title>
    <g id="Robot-Edit" stroke="none" stroke-width="1" fill="none" fill-rule="evenodd">
        <g id="Group">
            <polygon id="Fill-1" fill="#EA5906" points="61.0003055 100.000061 66.0003055 100.000061 66.0003055 95.000061 61.0003055 95.000061"></polygon>
            <polygon id="Fill-2" fill="#EA5906" points="70.0003055 100.000061 75.0003055 100.000061 75.0003055 95.000061 70.0003055 95.000061"></polygon>
            <polygon id="Fill-3" fill="#EA5906" points="78.0003055 100.000061 83.0003055 100.000061 83.0003055 95.000061 78.0003055 95.000061"></polygon>
            <polygon id="Fill-4" fill="#EA5906" points="87.0003055 100.000061 92.0003055 100.000061 92.0003055 95.000061 87.0003055 95.000061"></polygon>
            <path d="M59.9471185,53.6770474 L59.9471185,22.1693022 C51.2315281,22.1693022 44.165692,29.2223282 44.165692,37.9234798 C44.165692,46.6240214 51.2315281,53.6770474 59.9471185,53.6770474" id="Fill-5" fill="#EA5906"></path>
            <path d="M197.833575,37.9228088 C197.833575,29.2222672 190.767739,22.1692412 182.052148,22.1692412 L182.052148,53.6769864 C190.767739,53.6769864 197.833575,46.6239604 197.833575,37.9228088" id="Fill-7" fill="#EA5906"></path>
            <path d="M97.5785618,23.6940318 C104.799597,23.6940318 110.673944,29.5588459 110.673944,36.768023 C110.673944,43.9772 104.799597,49.8420141 97.5785618,49.8420141 C90.3563045,49.8420141 84.4801244,43.9772 84.4801244,36.768023 C84.4801244,29.5588459 90.3563045,23.6940318 97.5785618,23.6940318 M97.5785618,52.8918394 C106.483568,52.8918394 113.729044,45.6588737 113.729044,36.768023 C113.729044,27.8771722 106.483568,20.6442065 97.5785618,20.6442065 C88.6711111,20.6442065 81.425024,27.8771722 81.425024,36.768023 C81.425024,45.6588737 88.6711111,52.8918394 97.5785618,52.8918394" id="Fill-9" fill="#EA5906"></path>
            <path d="M97.5773397,47.7072584 C103.628883,47.7072584 108.535374,42.8098489 108.535374,36.768145 C108.535374,30.726441 103.628883,25.8284216 97.5773397,25.8284216 C91.5257969,25.8284216 86.6180837,30.726441 86.6180837,36.768145 C86.6180837,42.8098489 91.5257969,47.7072584 97.5773397,47.7072584" id="Fill-11" fill="#EA5906"></path>
            <path d="M144.424188,23.6940318 C151.644001,23.6940318 157.51957,29.5588459 157.51957,36.768023 C157.51957,43.9772 151.644001,49.8420141 144.424188,49.8420141 C137.201931,49.8420141 131.32575,43.9772 131.32575,36.768023 C131.32575,29.5588459 137.201931,23.6940318 144.424188,23.6940318 M144.424188,52.8918394 C153.329194,52.8918394 160.57467,45.6588737 160.57467,36.768023 C160.57467,27.8771722 153.329194,20.6442065 144.424188,20.6442065 C135.516737,20.6442065 128.27065,27.8771722 128.27065,36.768023 C128.27065,45.6588737 135.516737,52.8918394 144.424188,52.8918394" id="Fill-13" fill="#EA5906"></path>
            <path d="M144.423027,47.7072584 C150.47457,47.7072584 155.381061,42.8098489 155.381061,36.768145 C155.381061,30.726441 150.47457,25.8284216 144.423027,25.8284216 C138.371484,25.8284216 133.463771,30.726441 133.463771,36.768145 C133.463771,42.8098489 138.371484,47.7072584 144.423027,47.7072584" id="Fill-15" fill="#EA5906"></path>
            <polygon id="Fill-17" fill="#EA5906" points="166.316915 35.1743062 171.409156 35.1743062 171.409156 30.0914674 166.316915 30.0914674"></polygon>
            <polygon id="Fill-19" fill="#EA5906" points="166.316915 42.494497 171.409156 42.494497 171.409156 37.4116581 166.316915 37.4116581"></polygon>
            <path d="M67.2304167,12.1035367 C67.2304167,7.11097269 71.2985883,3.04982531 76.2991766,3.04982531 L165.699968,3.04982531 C170.701778,3.04982531 174.76995,7.11097269 174.76995,12.1035367 L174.76995,51.6378122 C174.76995,56.6303763 170.701778,60.6915236 165.699968,60.6915236 L76.2991766,60.6915236 C71.2985883,60.6915236 67.2304167,56.6303763 67.2304167,51.6378122 L67.2304167,12.1035367 Z M76.2991766,63.7413489 L165.699968,63.7413489 C172.368641,63.7413489 177.82505,58.2949709 177.82505,51.6378122 L177.82505,12.1035367 C177.82505,5.44637804 172.368641,0 165.699968,0 L76.2991766,0 C69.6305035,0 64.1753163,5.44637804 64.1753163,12.1035367 L64.1753163,51.6378122 C64.1753163,58.2949709 69.6305035,63.7413489 76.2991766,63.7413489 L76.2991766,63.7413489 Z" id="Fill-20" fill="#EA5906"></path>
            <path d="M189.225585,68.4691881 C195.792014,68.4691881 201.183822,73.7517747 201.345702,80.2703927 L201.349445,80.5721149 L201.349445,81.8115639 C209.398376,83.1225557 236.261716,92.11323 236.798178,120.911154 L236.806329,121.789894 L236.806329,185.954559 C240.019073,188.078457 242,190.976401 242,194.173228 C242,196.641147 240.818287,198.930955 238.801921,200.824897 C238.594738,205.399416 239.88012,214.39873 240.504604,218.133188 L240.552493,218.416899 L240.573879,218.654786 C240.576323,218.845705 240.594043,223.367376 237.617764,226.373284 C235.931349,228.076916 233.671185,228.940626 230.900209,228.940626 C222.165677,228.940626 221.793566,221.610676 221.614537,218.087518 C221.591929,217.643464 221.572377,217.237837 221.53816,216.888327 C221.397014,215.43112 220.884979,214.685133 220.015498,214.671104 C219.988002,214.670494 219.960506,214.669884 219.93301,214.669884 C219.003037,214.669884 218.401794,214.952908 217.41133,216.458911 C214.656852,220.524329 209.670928,220.135171 207.006269,218.562071 C205.495217,217.671522 204.512696,216.354607 204.165637,214.754669 C203.669489,212.47218 204.498643,209.768815 206.632325,206.718989 C208.280246,204.362084 208.623028,202.333341 208.509379,200.820627 C206.496679,198.927296 205.316188,196.639317 205.316188,194.173228 C205.316188,191.069211 207.184416,188.246834 210.232598,186.141417 L210.531244,185.93992 L210.531244,128.130481 C210.531244,123.317246 209.044021,121.480642 205.987088,118.751048 C204.740444,117.638065 203.275571,116.988417 201.690831,116.660766 L201.349445,116.595432 L201.349445,208.856307 C201.349445,215.4126 196.057129,220.794524 189.527802,220.956107 L189.225585,220.959844 L180.626089,220.959844 L180.626089,254.88915 L187.614325,254.88915 L187.751805,254.914769 C187.762272,254.916678 187.861391,254.936091 188.034597,254.978303 L188.178165,255.01432 C190.296377,255.560145 199.627175,258.575863 201.080539,269.548156 L201.133144,269.979686 L201.133144,283 L158.909824,283 L145.924425,278.474669 L145.924425,268.617024 C145.611583,263.68407 146.461055,259.985986 148.388712,257.881505 L148.572586,257.68889 L148.572586,220.959844 L93.1750623,220.959844 L93.1750623,257.68889 C95.1700243,259.69342 96.0877058,263.302764 95.8478786,268.158188 L95.8220013,268.617024 L95.8220013,278.474669 L82.8378247,283 L40.6138934,283 L40.6138934,269.979686 C42.0154472,257.411614 53.6186155,254.988752 53.9865897,254.916316 L53.994622,254.914769 L54.1327126,254.88915 L61.1215602,254.88915 L61.1215602,220.959844 L52.776248,220.959844 C46.2080136,220.959844 40.8167714,215.677257 40.6549083,209.158056 L40.6511656,208.856307 L40.6511656,116.590552 C38.9348102,116.892484 37.3498241,117.558566 36.0147453,118.751048 C33.0386481,121.406869 31.5514512,123.217318 31.4732361,127.746665 L31.469978,128.130481 L31.469978,185.93992 C34.6949419,188.065038 36.6844233,190.969081 36.6844233,194.173228 C36.6844233,196.639317 35.5051545,198.927296 33.4906213,200.820627 C33.3769716,202.333341 33.7209759,204.362084 35.3688971,206.718989 C37.5013571,209.768815 38.3311224,212.47218 37.8355851,214.754669 C37.4873037,216.354607 36.5053944,217.671522 34.9943418,218.562071 C32.3296832,220.135171 27.3431484,220.524329 24.5905029,216.458911 C23.6000394,214.952908 22.9969626,214.669884 22.067601,214.669884 C22.0413272,214.669884 22.0138313,214.670494 21.9851133,214.671104 C21.1162428,214.685133 20.6029859,215.43112 20.4624513,216.888327 C20.4288452,217.237837 20.4086815,217.643464 20.3860738,218.087518 C20.2070449,221.610676 19.8343227,228.940626 11.1010127,228.940626 C8.33003669,228.940626 6.06987343,228.076916 4.38223598,226.373284 C1.59593243,223.559242 1.43414848,219.416764 1.42635126,218.742758 L1.42612086,218.654786 L1.44811758,218.416899 C2.05180541,214.875442 3.4119361,205.519798 3.19869009,200.824897 C1.18171283,198.930955 0,196.641147 0,194.173228 C0,191.076302 1.85962707,188.25987 4.89616139,186.155927 L5.19367064,185.954559 L5.19367064,121.789894 C5.19367064,92.5923975 31.9753234,83.3222603 40.4014921,81.8536905 L40.6511656,81.8115639 L40.6511656,80.5721149 C40.6511656,74.016423 45.9428891,68.6345077 52.4739492,68.4729244 L52.776248,68.4691881 L189.225585,68.4691881 Z M197.732207,268.206517 L161.296468,268.206517 C161.341378,268.651182 161.36601,269.096533 161.36727,269.541798 L161.360626,269.987005 L198.06399,269.987005 C197.982725,269.363011 197.870297,268.770125 197.732207,268.206517 Z M80.4505692,268.206517 L44.0154421,268.206517 C43.911416,268.629223 43.8221689,269.068398 43.7495052,269.524814 L43.6824362,269.987005 L80.3864121,269.987005 C80.3674705,269.393509 80.3913003,268.799403 80.4505692,268.206517 Z M150.756372,259.818278 C149.63186,260.930878 148.994876,263.176447 148.923097,266.145039 L148.917202,266.504715 L158.310413,269.778397 C158.38007,266.514474 156.802416,263.046213 155.170992,261.057727 C154.070545,259.715804 153.094135,259.191844 152.547883,259.148536 C151.847043,259.095469 151.267185,259.313227 150.756372,259.818278 Z M89.386859,259.14079 L89.1985437,259.148536 C88.6516807,259.191844 87.6758816,259.715804 86.5754345,261.057727 C85.0034544,262.975196 83.4791993,266.268629 83.4353334,269.427986 L83.4366243,269.778397 L92.8286139,266.504715 C92.8023401,263.357905 92.1595469,260.975382 90.9900545,259.818278 C90.5721168,259.405054 90.1083677,259.184151 89.5693571,259.146548 L89.386859,259.14079 Z M187.314925,257.938975 L156.424805,257.938975 C156.801194,258.287875 157.172083,258.682523 157.535029,259.125358 C158.924672,260.819718 160.227738,263.279816 160.897827,265.952872 L160.998291,266.376622 L197.156626,266.376622 C194.599507,259.834137 188.262617,258.155513 187.314925,257.938975 Z M85.3222323,257.938975 L54.4321124,257.938975 C53.5004461,258.151714 47.3676085,259.775688 44.7284062,266.036754 L44.590412,266.376622 L80.748136,266.376622 C81.3829859,263.540895 82.7492268,260.908895 84.2113978,259.125358 C84.5749547,258.682523 84.9464549,258.287875 85.3222323,257.938975 Z M66.7985477,220.959844 L62.9546204,220.959844 L62.9546204,254.88915 L66.7985477,254.88915 L66.7985477,220.959844 Z M90.1199619,220.959844 L85.9442507,220.959844 L85.9442507,240.961818 L87.3703716,240.961818 L87.3703716,247.367671 L85.9442507,247.367671 L85.9442507,254.88915 L90.1199619,254.88915 L90.1199619,220.959844 Z M178.793028,220.959844 L174.947879,220.959844 L174.947879,254.88915 L178.793028,254.88915 L178.793028,220.959844 Z M155.802176,220.959844 L151.627687,220.959844 L151.627687,254.88915 L155.802176,254.88915 L155.802176,247.367671 L154.377277,247.367671 L154.377277,240.961818 L155.802176,240.961818 L155.802176,220.959844 Z M6.25501251,203.03724 C6.08759301,209.028317 4.6963003,217.52391 4.48366531,218.788368 C4.50321795,219.377594 4.69141214,222.360323 6.56846581,224.242676 C7.67380113,225.351592 9.15735787,225.890801 11.1010127,225.890801 C13.2505814,225.890801 14.6339308,225.311334 15.5431287,224.34637 C14.2495992,224.063346 12.5796813,223.422273 11.4725129,221.960796 C10.3256283,220.446253 10.0830533,218.482775 10.7515092,216.122821 C10.987974,215.287778 11.1822784,214.632676 11.3496979,214.070288 C11.4916767,213.591687 11.612565,213.184084 11.7218325,212.790292 L11.7930598,212.529183 L11.8614675,212.268401 C12.2086968,210.915386 12.4679896,209.424697 13.026337,205.459411 C10.4936588,204.96656 8.19439023,204.131518 6.25501251,203.03724 Z M235.745599,203.03724 C233.806221,204.131518 231.507563,204.96656 228.975496,205.459411 C229.532982,209.424697 229.791718,210.915386 230.139334,212.268401 L230.207828,212.529183 L230.279167,212.790292 C230.38862,213.184084 230.509781,213.591687 230.652135,214.070288 C230.818944,214.632676 231.013859,215.287778 231.249713,216.122821 C231.918169,218.482775 231.674983,220.446253 230.528098,221.960796 C229.420319,223.422273 227.752234,224.063346 226.457482,224.34637 C227.367902,225.311334 228.749419,225.890801 230.900209,225.890801 C232.844475,225.890801 234.326199,225.351592 235.432756,224.242676 C237.308588,222.360323 237.498615,219.377594 237.517557,218.788368 C237.370645,217.914743 236.660512,213.589296 236.180541,209.022935 L236.106784,208.300397 C235.927753,206.491387 235.791092,204.67117 235.745599,203.03724 Z M218.987762,205.577135 C218.157386,206.918448 217.097266,208.073722 216.060365,209.198497 C214.939754,210.414158 213.881467,211.562722 213.254561,212.81376 C213.015041,213.292583 212.971658,213.711019 213.119525,214.131285 C213.309552,214.674154 213.790425,215.147487 214.247468,215.494557 C214.466213,215.285339 214.675793,215.052332 214.869487,214.768088 C215.955269,213.115693 217.367337,211.59139 220.065601,211.621279 C222.594002,211.662756 224.28164,213.52254 224.578596,216.594934 C224.61709,216.984701 224.64092,217.437295 224.665971,217.933197 C224.730129,219.205584 224.83278,220.409655 225.075355,221.483194 C225.957057,221.384379 227.399064,221.043409 228.096849,220.113822 C228.63027,219.402603 228.701759,218.338824 228.309484,216.952373 C228.077908,216.13258 227.886658,215.489067 227.723516,214.937049 C226.992736,212.480719 226.774602,211.744491 225.947892,205.869918 C225.196948,205.930304 224.433173,205.964463 223.657788,205.964463 C222.044084,205.964463 220.47804,205.82966 218.987762,205.577135 Z M23.0140711,205.577135 C21.5219601,205.82966 19.9577487,205.964463 18.3428227,205.964463 C17.5668272,205.964463 16.8042741,205.930304 16.0527194,205.869918 C15.2253982,211.744491 15.0072641,212.480719 14.2783171,214.937049 C14.1145637,215.489067 13.9227034,216.13258 13.6911268,216.952373 C13.2982409,218.338824 13.3697303,219.402603 13.9043728,220.113822 C14.6027688,221.043409 16.0441651,221.384379 16.9252561,221.483194 C17.16722,220.409655 17.2698714,219.205584 17.3358616,217.933197 C17.3609134,217.437295 17.3847432,216.984701 17.4214044,216.594934 C17.7189712,213.52254 19.4059976,211.662756 21.9350097,211.621279 C24.6332743,211.59139 26.0447307,213.115693 27.1323464,214.768088 C27.3242067,215.052332 27.5356197,215.285339 27.7525318,215.494557 C28.2095748,215.147487 28.6910587,214.674154 28.8816969,214.131285 C29.0295638,213.711019 28.9855703,213.292583 28.7454394,212.81376 C28.1191439,211.562722 27.0608571,210.414158 25.9402463,209.198497 C24.9027342,208.073722 23.8432254,206.918448 23.0140711,205.577135 Z M211.46916,202.981123 C211.212531,204.61339 210.53491,206.465854 209.137507,208.465319 C207.53358,210.757568 206.847404,212.708846 207.151692,214.108106 C207.316056,214.867513 207.790208,215.482967 208.560093,215.936781 C209.0373,216.217975 210.393154,216.741325 211.833328,216.595544 C211.41539,216.13746 211.039613,215.586051 210.812924,214.938878 C210.447534,213.898278 210.536132,212.786312 211.068331,211.722533 C211.848603,210.164072 213.075532,208.833128 214.262133,207.546712 C215.014909,206.729969 215.778684,205.896146 216.423311,205.010477 C214.599416,204.506646 212.930109,203.817386 211.46916,202.981123 Z M30.5320621,202.981123 C29.0705021,203.817386 27.4005843,204.506646 25.5773004,205.010477 C26.2219265,205.896146 26.9863126,206.729969 27.7384784,207.546712 C28.9244683,208.833128 30.1513966,210.164072 30.9322803,211.722533 C31.4657008,212.786312 31.5536877,213.898278 31.1882977,214.938878 C30.9603872,215.586051 30.5846099,216.13746 30.1672832,216.595544 C31.6074575,216.741325 32.9645331,216.217975 33.4405177,215.936781 C34.210403,215.482967 34.6839436,214.867513 34.850141,214.108106 C35.154429,212.708846 34.4670314,210.757568 32.8643258,208.465319 C31.4657008,206.465854 30.7874685,204.61339 30.5320621,202.981123 Z M185.000306,183.000061 L58.0003055,183.000061 L58.0003055,200.953802 C58.0003055,207.479068 63.2755103,212.835524 69.786183,212.996342 L70.0875381,213.000061 L172.914291,213.000061 C179.461422,213.000061 184.835235,207.742473 184.996575,201.254123 L185.000306,200.953802 L185.000306,183.000061 Z M201.349445,86.1234069 L201.349445,104.527273 C204.909248,105.562993 208.39023,107.209289 211.282188,109.790051 C215.950514,113.958035 218.368165,120.728885 218.471074,127.667673 L218.474505,128.130481 L218.474505,182.074571 L232.529189,182.074571 L232.529189,121.789894 C232.529189,109.772362 227.532267,100.166633 217.677124,93.2404793 C211.295019,88.7541862 204.601294,86.7406916 201.349445,86.1234069 Z M40.6511656,86.1234069 C37.3980947,86.7413015 30.7037588,88.7547962 24.3228761,93.2404793 C14.6193509,100.060076 9.62571249,109.477436 9.47435877,121.236952 L9.47081117,121.789894 L9.47081117,182.074571 L23.526717,182.074571 L23.526717,128.130481 C23.526717,121.031097 25.9457455,114.050657 30.7196453,109.790051 C33.4772345,107.327179 36.7759702,105.715196 40.1662637,104.672402 L40.6511656,104.527273 L40.6511656,86.1234069 Z M185.000306,125.000061 L118.000306,125.000061 L118.000306,161.000061 L185.000306,161.000061 L185.000306,125.000061 Z M61.0003055,128.000061 L59.0003055,128.000061 L59.0003055,158.000061 L61.0003055,158.000061 L61.0003055,128.000061 Z M93.0003055,128.000061 C84.7160343,128.000061 78.0003055,134.71579 78.0003055,143.000061 C78.0003055,151.284332 84.7160343,158.000061 93.0003055,158.000061 C101.284577,158.000061 108.000306,151.284332 108.000306,143.000061 C108.000306,134.71579 101.284577,128.000061 93.0003055,128.000061 Z M78.0003055,128.000061 L76.0343055,128.000061 L64.0003055,157.999948 L65.9663055,157.999948 L78.0003055,128.000061 Z M93.0003055,129.875061 C100.249043,129.875061 106.125306,135.751324 106.125306,143.000061 C106.125306,150.248798 100.249043,156.125061 93.0003055,156.125061 C85.7515682,156.125061 79.8753055,150.248798 79.8753055,143.000061 C79.8753055,135.751324 85.7515682,129.875061 93.0003055,129.875061 Z M172.914291,76.000061 L70.0875381,76.000061 C63.5398072,76.000061 58.1653944,81.2448304 58.0040365,87.7173611 L58.0003055,88.0169505 L58.0003055,103.000061 L185.000306,103.000061 L185.000306,88.0169505 C185.000306,81.4074493 179.562147,76.000061 172.914291,76.000061 Z" id="Combined-Shape" fill="#EA5906"></path>
            <path d="M118.000306,150.740461 C124.647471,140.407155 134.971054,139.803213 148.971054,148.928636 C169.971054,162.61677 161.972473,120.48533 185.000306,142.492434" id="Path-2" stroke="#EA5906" stroke-width="2" stroke-linecap="square"></path>
            <circle id="Oval" stroke="#EA5906" stroke-width="2" cx="75.0003055" cy="198.000061" r="12"></circle>
            <circle id="Oval-Copy-2" stroke="#EA5906" stroke-width="2" cx="105.000306" cy="198.000061" r="12"></circle>
            <line x1="75.0003055" y1="209.000061" x2="75.0003055" y2="198.000061" id="Path-5" stroke="#EA5906" stroke-width="4" stroke-linecap="round"></line>
            <line x1="105.000306" y1="198.000061" x2="111.923371" y2="190.07246" id="Path-6" stroke="#EA5906" stroke-width="4" stroke-linecap="round"></line>
            <line x1="133.000306" y1="190.500061" x2="171.000306" y2="190.500061" id="Path-7" stroke="#EA5906" stroke-width="4" stroke-linecap="round"></line>
            <line x1="133.000306" y1="197.500061" x2="171.000306" y2="197.500061" id="Path-7" stroke="#EA5906" stroke-width="4" stroke-linecap="round"></line>
            <line x1="133.000306" y1="204.500061" x2="155.000306" y2="204.500061" id="Path-7" stroke="#EA5906" stroke-width="4" stroke-linecap="round"></line>
        </g>
    </g>
</svg>