<?xml version="1.0" encoding="iso-8859-1"?>
<!-- Generator: Adobe Illustrator 16.0.0, SVG Export Plug-In . SVG Version: 6.00 Build 0)  -->
<!DOCTYPE svg PUBLIC "-//W3C//DTD SVG 1.1//EN" "http://www.w3.org/Graphics/SVG/1.1/DTD/svg11.dtd">
<svg version="1.1" id="Ebene_1" xmlns="http://www.w3.org/2000/svg" xmlns:xlink="http://www.w3.org/1999/xlink" x="0px" y="0px"
	 width="496.255px" height="608.728px" viewBox="0 0 496.255 608.728" style="enable-background:new 0 0 496.255 608.728;"
	 xml:space="preserve">
<path style="fill:#999999;" d="M273.81,52.973C313.806,0.257,369.41,0,369.41,0s8.271,49.562-31.463,97.306
	c-42.426,50.98-90.649,42.638-90.649,42.638S238.243,99.85,273.81,52.973z"/>
<path style="fill:#999999;" d="M252.385,174.662c20.576,0,58.764-28.284,108.471-28.284c85.562,0,119.222,60.883,119.222,60.883
	s-65.833,33.659-65.833,115.331c0,92.133,82.01,123.885,82.01,123.885s-57.328,161.357-134.762,161.357
	c-35.565,0-63.215-23.967-100.688-23.967c-38.188,0-76.084,24.861-100.766,24.861C89.33,608.73,0,455.666,0,332.628
	c0-121.052,75.612-184.554,146.533-184.554C192.638,148.074,228.416,174.662,252.385,174.662z"/>
</svg>
