<?xml version="1.0" encoding="utf-8"?>
<!-- Generator: Adobe Illustrator 19.0.0, SVG Export Plug-In . SVG Version: 6.00 Build 0)  -->
<svg version="1.1" id="layer" xmlns="http://www.w3.org/2000/svg"
	xmlns:xlink="http://www.w3.org/1999/xlink" x="0px" y="0px" width="400px"
	viewBox="-133 200 602 150" style="enable-background:new -153 -46 652 652;" xml:space="preserve">
<style type="text/css">
	.st0{fill:#ECB360;}
	.st1{fill:#D76835;}
	.st2{fill:#D33A41;}
	.st3{fill:#B6CB46;}
	.st4{fill:#66AD4A;}
	.st5{fill:#AED7DC;}
	.st6{fill:#5BB1CF;}
	.st7{fill:#25A8C3;}
	.st8{fill:#1B1A18;}
	.st9{fill:#FFFFFE;}
	.st10{fill:#142433;}
</style>
<path class="st0" d="M-27.5,275c0,28.7-23.3,52-52,52c-28.7,0-52-23.3-52-52c0-28.7,23.3-52,52-52C-50.8,223-27.5,246.3-27.5,275"/>
<path class="st1" d="M-41.4,269.8c0,25.8-20.2,46.8-45,46.8c-24.9,0-45-20.9-45-46.8s20.2-46.8,45-46.8
	C-61.5,223-41.4,244-41.4,269.8"/>
<path class="st2" d="M-37.9,264.6c0,23-17.8,41.6-39.8,41.6c-22,0-39.8-18.6-39.8-41.6c0-23,17.8-41.6,39.8-41.6
	C-55.7,223-37.9,241.6-37.9,264.6"/>
<path class="st3" d="M-41.4,268.1c0,21-16.3,38.1-36.4,38.1s-36.4-17.1-36.4-38.1c0-21.1,16.3-38.1,36.4-38.1S-41.4,247-41.4,268.1"
	/>
<path class="st4" d="M-44.8,271.5c0,19.1-15.5,34.7-34.7,34.7c-19.1,0-34.6-15.5-34.6-34.7s15.5-34.6,34.6-34.6
	C-60.3,236.9-44.8,252.4-44.8,271.5"/>
<path class="st5" d="M-58.7,264.6c0,15.3-12.4,27.7-27.7,27.7c-15.3,0-27.7-12.4-27.7-27.7s12.4-27.7,27.7-27.7
	C-71.1,236.9-58.7,249.3-58.7,264.6"/>
<path class="st6" d="M-55.2,261.1c0,13.4-10.9,24.3-24.3,24.3s-24.3-10.9-24.3-24.3c0-13.4,10.9-24.3,24.3-24.3
	S-55.2,247.7-55.2,261.1"/>
<path class="st7" d="M-55.2,262.9c0,12.4-9.3,22.5-20.8,22.5s-20.8-10.1-20.8-22.5c0-12.4,9.3-22.5,20.8-22.5
	S-55.2,250.4-55.2,262.9"/>
<path class="st8" d="M-79.5,285.4c-9.6,0-17.3-8.5-17.3-19.1s7.8-19.1,17.3-19.1c9.6,0,17.3,8.5,17.3,19.1S-69.9,285.4-79.5,285.4z"
	/>
<path class="st9" d="M-70,260.8c-1.6,2.8-4.9,4.4-7.2,3.6c-2.4-0.8-2.9-3.7-1.3-6.4c1.6-2.8,4.9-4.4,7.2-3.6
	C-68.9,255.2-68.4,258.1-70,260.8"/>
<path class="st10" d="M396.7,294.5c-0.8-2.3-1.2-5.3-1.2-9.2s0.4-6.9,1.2-9.2c2.3-6.7,8.4-10.3,16.5-10.3c6,0,10.7,2.2,13.8,5.8
	c0.2,0.3,0.3,0.8-0.1,1.1l-5.2,4.3c-0.4,0.3-0.8,0.2-1.2-0.2c-2-2.1-4.1-3.3-7.4-3.3c-3.6,0-6.3,1.6-7.5,4.9c-0.7,1.9-0.8,4-0.8,6.9
	c0,2.9,0.2,5.1,0.8,7c1.2,3.2,3.9,4.8,7.5,4.8c3.3,0,5.4-1.2,7.4-3.3c0.3-0.4,0.7-0.4,1.2-0.1l5.2,4.3c0.4,0.3,0.3,0.7,0.1,1.1
	c-3.1,3.5-7.9,5.7-13.8,5.7C405.1,304.8,399,301.1,396.7,294.5 M459.3,303.9c-0.6,0-1-0.2-1.3-0.8l-10.1-15.7l-5.4,5.8v9.8
	c0,0.5-0.3,0.8-0.8,0.8h-7.6c-0.5,0-0.8-0.3-0.8-0.8V252c0-0.5,0.3-0.8,0.8-0.8h7.6c0.5,0,0.8,0.3,0.8,0.8v30.4l13.7-15
	c0.5-0.5,0.9-0.8,1.6-0.8h8.4c0.5,0,0.7,0.5,0.3,0.8L453.9,281l14.6,22.2c0.2,0.3,0.1,0.8-0.4,0.8H459.3z M15.2,295.9H27
	c5.5,0,8.5-2.9,8.5-7.4c0-4.3-3.1-7.3-8.5-7.3H15.2c-0.3,0-0.5,0.2-0.5,0.5v13.7C14.7,295.7,14.9,295.9,15.2,295.9z M26.5,273.2
	c5,0,8-2.8,8-6.9c0-4.2-3.1-7-8-7H15.2c-0.3,0-0.5,0.2-0.5,0.5v12.9c0,0.3,0.2,0.5,0.5,0.5H26.5z M5,252c0-0.5,0.3-0.8,0.8-0.8h21
	c11.9,0,17.6,5.6,17.6,14c0,6-3,9.4-6.5,11.2v0.2c3.5,1.2,7.5,5.4,7.5,11.9c0,10.5-7,15.5-19.4,15.5H5.8c-0.5,0-0.8-0.3-0.8-0.8
	L5,252z M52.2,303.9c-0.5,0-0.8-0.3-0.8-0.8v-35.8c0-0.5,0.3-0.8,0.8-0.8h7.6c0.5,0,0.8,0.3,0.8,0.8v3.2h0.1
	c1.9-2.9,5.3-4.8,10.4-4.8c3.1,0,6.3,1.2,8.4,3.1c0.4,0.4,0.5,0.7,0.2,1.1l-4.4,5.2c-0.3,0.4-0.7,0.5-1.2,0.2
	c-1.8-1.1-3.7-1.8-5.9-1.8c-5.2,0-7.5,3.5-7.5,9.5v20.2c0,0.5-0.3,0.8-0.8,0.8H52.2z M105,292.2c0.7-1.9,0.8-3.7,0.8-6.9
	c0-3.2-0.2-4.9-0.8-6.9c-1.2-3.1-3.7-4.9-7.5-4.9c-3.7,0-6.4,1.8-7.5,4.9c-0.7,2-0.8,3.7-0.8,6.9c0,3.2,0.2,5,0.8,6.9
	c1.2,3.1,3.8,4.9,7.5,4.9C101.3,297,103.9,295.3,105,292.2z M81.1,294.5c-0.9-2.6-1.3-5.1-1.3-9.2c0-4.1,0.4-6.6,1.3-9.2
	c2.2-6.5,8.4-10.3,16.5-10.3c8,0,14.2,3.8,16.4,10.3c0.9,2.6,1.3,5.1,1.3,9.2c0,4.1-0.4,6.6-1.3,9.2c-2.2,6.5-8.4,10.3-16.4,10.3
	C89.5,304.8,83.3,301,81.1,294.5z M155.5,303.9c-0.5,0-0.8-0.3-1-0.8l-7.7-23.9h-0.2l-7.8,23.9c-0.2,0.5-0.5,0.8-1,0.8h-6.8
	c-0.5,0-0.8-0.3-1-0.8l-12.6-35.8c-0.2-0.5,0.1-0.8,0.6-0.8h8c0.6,0,0.9,0.2,1.1,0.8l7.7,24.6h0.2l7.6-24.6c0.2-0.5,0.6-0.8,1.1-0.8
	h6c0.5,0,0.9,0.3,1.1,0.8l8.1,24.6h0.2l7.3-24.6c0.2-0.5,0.5-0.8,1.1-0.8h8c0.5,0,0.7,0.3,0.6,0.8l-12.6,35.8
	c-0.2,0.5-0.5,0.8-1,0.8H155.5z M177.5,298.9c-0.3-0.3-0.3-0.8,0-1.1l4.7-4.6c0.3-0.3,0.8-0.3,1.2,0c2.9,2.5,7.5,4.3,11.7,4.3
	c4.9,0,7.4-1.9,7.4-4.4c0-2.2-1.4-3.6-6.6-4.1l-4.3-0.4c-8.1-0.8-12.3-4.6-12.3-11c0-7.2,5.5-11.8,15.5-11.8c6.2,0,11.4,1.9,15,4.6
	c0.4,0.3,0.4,0.8,0.2,1.1l-4.1,4.6c-0.3,0.4-0.7,0.4-1.2,0.2c-2.5-1.6-6.5-3.1-10.4-3.1c-4,0-6,1.6-6,3.9c0,2.2,1.4,3.5,6.5,4
	l4.3,0.4c8.4,0.8,12.3,4.8,12.3,10.9c0,7.4-5.8,12.6-16.7,12.6C186.4,304.8,180.8,301.8,177.5,298.9 M241.8,277.9
	c-1.1-3-4.1-4.8-7.8-4.8c-3.8,0-6.8,1.8-7.9,4.8c-0.3,0.9-0.5,1.9-0.5,3.2c0,0.3,0.2,0.5,0.5,0.5h15.7c0.3,0,0.5-0.2,0.5-0.5
	C242.3,279.8,242.2,278.8,241.8,277.9z M217.7,294.4c-0.8-2.4-1.4-5.3-1.4-9.1c0-3.9,0.5-6.8,1.3-9.2c2.2-6.5,8.4-10.3,16.3-10.3
	c8.2,0,14.2,4,16.4,10.3c0.9,2.6,1.3,5.2,1.3,11.2c0,0.5-0.3,0.8-0.9,0.8h-24.6c-0.3,0-0.5,0.2-0.5,0.5c0,1.1,0.2,2,0.6,2.9
	c1.3,3.6,4.5,5.7,8.9,5.7c4.5,0,7.4-1.5,9.4-3.6c0.4-0.4,0.8-0.5,1.2-0.2l4.9,4c0.4,0.3,0.4,0.7,0.1,1.1c-3.4,3.7-9,6.4-16.4,6.4
	C225.9,304.8,220,300.9,217.7,294.4L217.7,294.4z M258.6,303.9c-0.5,0-0.8-0.3-0.8-0.8v-35.8c0-0.5,0.3-0.8,0.8-0.8h7.6
	c0.5,0,0.8,0.3,0.8,0.8v3.2h0.1c1.9-2.9,5.3-4.8,10.4-4.8c3.1,0,6.3,1.2,8.4,3.1c0.4,0.4,0.5,0.7,0.2,1.1l-4.4,5.2
	c-0.3,0.4-0.7,0.5-1.2,0.2c-1.8-1.1-3.7-1.8-5.9-1.8c-5.2,0-7.5,3.5-7.5,9.5v20.2c0,0.5-0.3,0.8-0.8,0.8H258.6z M287.4,297.8
	c-0.3-0.3-0.5-0.8-0.2-1.2l5.1-5.6c0.3-0.4,0.8-0.4,1.2-0.1c3.6,2.7,9,5.6,15.3,5.6c6.7,0,10.6-3.2,10.6-7.6c0-3.8-2.5-6.3-10.3-7.3
	l-3-0.4c-10.8-1.4-17-6.3-17-15c0-9.5,7.5-15.9,19-15.9c7,0,13.7,2.1,18.2,5.3c0.4,0.3,0.5,0.6,0.2,1.1l-4,5.7
	c-0.3,0.4-0.7,0.5-1.2,0.2c-4.6-2.8-8.8-4.1-13.5-4.1c-5.7,0-8.9,2.9-8.9,7.1c0,3.6,2.7,6.1,10.4,7.1l3,0.4
	c10.8,1.4,16.8,6.2,16.8,15.3c0,9.4-7.2,16.3-21.2,16.3C299.8,304.8,291.8,301.7,287.4,297.8 M346.5,304.6c-8,0-11.1-3.6-11.1-10.9
	V274c0-0.3-0.2-0.5-0.5-0.5h-2.7c-0.5,0-0.8-0.3-0.8-0.8v-5.2c0-0.5,0.3-0.8,0.8-0.8h2.7c0.3,0,0.5-0.2,0.5-0.5v-10.2
	c0-0.5,0.3-0.8,0.8-0.8h7.6c0.5,0,0.8,0.3,0.8,0.8v10.2c0,0.3,0.2,0.5,0.5,0.5h5.3c0.5,0,0.8,0.3,0.8,0.8v5.2c0,0.5-0.3,0.8-0.8,0.8
	h-5.3c-0.3,0-0.5,0.2-0.5,0.5v19.4c0,2.6,1.2,3.5,3.7,3.5h2.1c0.5,0,0.8,0.3,0.8,0.8v6.2c0,0.5-0.3,0.8-0.8,0.8H346.5z M380.6,291.4
	v-2.9c0-0.3-0.2-0.5-0.5-0.5h-6.6c-6,0-8.6,1.5-8.6,5c0,3.1,2.4,4.6,6.9,4.6C377.5,297.7,380.6,295.6,380.6,291.4z M381.6,303.9
	c-0.5,0-0.8-0.3-0.8-0.8v-2.7h-0.1c-1.9,2.6-5.6,4.3-11.3,4.3c-7.3,0-13.4-3.6-13.4-11.4c0-8.1,6.1-11.9,16-11.9h8.1
	c0.3,0,0.5-0.2,0.5-0.5v-1.8c0-4.3-2.2-6.2-8.9-6.2c-4.5,0-7.2,1.2-9.1,2.6c-0.4,0.3-0.9,0.2-1.2-0.2l-3.1-5.1
	c-0.2-0.4-0.2-0.8,0.2-1c3.2-2.2,7.6-3.6,14.2-3.6c12.2,0,16.6,3.9,16.6,13v24.4c0,0.5-0.3,0.8-0.8,0.8H381.6z"/>
</svg>
