<svg width="156" height="27" viewBox="0 0 156 27" fill="none" xmlns="http://www.w3.org/2000/svg">
<path fill-rule="evenodd" clip-rule="evenodd" d="M8.51247 24.3262V21.9366C8.51247 21.7328 8.41553 21.5421 8.25286 21.4199L8.17948 21.3233L8.09092 21.246C7.81687 21.0903 7.75775 21.057 7.73026 21.0435L3.43213 18.5978V8.62176L7.54569 6.28422C7.54569 6.28422 7.8339 6.11966 7.84876 6.11066L7.84879 6.11064C7.87332 6.0953 7.87335 6.09529 7.91437 6.06872L12.1959 3.63516L16.3112 5.97917C16.5435 6.11165 16.6272 6.15863 16.6643 6.17674L20.9604 8.62151V11.8776C20.9604 12.1098 21.0862 12.3244 21.2905 12.4406L23.4005 13.6409C23.8412 13.8915 24.3923 13.5786 24.3923 13.0778L24.3912 7.65872C24.3937 7.36616 24.3162 7.07262 24.1675 6.81461C24.017 6.55394 23.7995 6.33824 23.5338 6.18693L23.2627 6.03432L18.2915 3.20565L18.0205 3.05519L13.1301 0.274C12.91 0.119804 12.596 0.0170598 12.2775 0.00184454C11.9495 -0.0131966 11.6258 0.0639459 11.3398 0.226125L11.0656 0.385971L6.36588 3.05619C6.18474 3.15773 6.18466 3.15778 6.09565 3.20797L6.09553 3.20803L5.82761 3.36238L0.920904 6.15306C0.669226 6.27278 0.427081 6.49173 0.259856 6.75818C0.0908045 7.02375 0 7.33271 0 7.64914V13.6098L0.00129435 19.5609C-0.00162096 19.8526 0.0759176 20.1462 0.224915 20.4049C0.375575 20.6656 0.593583 20.8816 0.859329 21.0325L1.12887 21.1846C4.52242 23.1157 6.08419 24.0043 6.10348 24.0151L6.37368 24.1651L7.50318 24.8788C7.95057 25.1445 8.51247 24.8324 8.51247 24.3262ZM21.9489 15.2311C21.5083 14.9814 20.9581 15.2943 20.9581 15.7946V16.4021L10.0559 10.2024L9.6895 9.99238C9.35757 9.80385 8.94792 9.82357 8.63885 10.04L8.3488 10.2011L6.73995 11.1124L6.09113 11.479C5.61936 11.7475 5.4718 12.3351 5.74819 12.8044L6.11712 13.4305L6.48937 14.0634C6.76271 14.5273 7.36106 14.672 7.83626 14.3985C8.46891 14.0391 8.49799 14.0226 8.52549 14.0038C8.52729 14.0026 8.52909 14.0013 8.53106 14L9.19903 13.622L10.5203 14.3735L10.519 26.0437C10.519 26.5717 10.9539 26.9999 11.4903 26.9999C11.7364 26.9999 11.9717 26.9085 12.1513 26.7447C13.1449 25.9549 13.3149 25.8198 13.4848 25.6846L13.5973 25.5952C13.8499 25.3949 13.9828 25.0851 13.9552 24.7684L13.9572 16.329L21.7977 20.8018C22.2864 21.0788 22.8341 20.8921 23.2071 20.4229L24.2018 19.425C24.3225 19.3032 24.3899 19.1403 24.3899 18.9706V16.9906C24.3899 16.758 24.2637 16.5431 24.0589 16.4271L21.9489 15.2311Z" fill="white"/>
<path fill-rule="evenodd" clip-rule="evenodd" d="M31.4289 19.033C31.3052 19.033 31.197 18.9875 31.1041 18.8968C31.0115 18.8058 30.9648 18.6997 30.9648 18.5785V6.75735C30.9648 6.62421 31.0115 6.51499 31.1041 6.43022C31.197 6.34518 31.3052 6.3028 31.4289 6.3028H34.0266C34.1627 6.3028 34.2739 6.34518 34.3607 6.43022C34.4472 6.51499 34.4904 6.62421 34.4904 6.75735V16.178H40.0571C40.1929 16.178 40.3075 16.2233 40.4001 16.3143C40.493 16.4053 40.5394 16.5174 40.5394 16.6508V18.5785C40.5394 18.7119 40.493 18.8211 40.4001 18.9059C40.3075 18.9907 40.1929 19.033 40.0571 19.033H31.4289ZM41.3741 19.033C41.2752 19.033 41.1852 18.9938 41.1051 18.9147C41.0244 18.8359 40.9844 18.748 40.9844 18.651C40.9844 18.5785 40.9907 18.5239 41.0029 18.4875L45.3263 6.83017C45.45 6.47859 45.6972 6.3028 46.0684 6.3028H48.9631C49.334 6.3028 49.5815 6.47859 49.7052 6.83017L54.0285 18.4875C54.041 18.5239 54.0471 18.5785 54.0471 18.651C54.0471 18.748 54.0068 18.8359 53.9264 18.9147C53.846 18.9938 53.7563 19.033 53.6574 19.033H51.2451C50.9485 19.033 50.7381 18.8996 50.6144 18.6328L49.9463 16.869H45.0852L44.4171 18.6328C44.2934 18.8996 44.083 19.033 43.7861 19.033H41.3741ZM45.8672 14.1416H49.1699L47.5185 9.50397L45.8672 14.1416ZM55.9394 19.033C55.8033 19.033 55.6889 18.9907 55.5961 18.9059C55.5035 18.8211 55.457 18.7119 55.457 18.5785V6.77556C55.457 6.64241 55.5035 6.53007 55.5961 6.43932C55.6889 6.3483 55.8033 6.3028 55.9394 6.3028H58.0362C58.3453 6.3028 58.5682 6.4362 58.704 6.70274L61.8955 12.3041L65.1056 6.70274C65.2415 6.4362 65.4644 6.3028 65.7734 6.3028H67.8703C68.0064 6.3028 68.1207 6.3483 68.2136 6.43932C68.3062 6.53007 68.3526 6.64241 68.3526 6.77556V18.5785C68.3526 18.7119 68.3062 18.8211 68.2136 18.9059C68.1207 18.9907 68.0064 19.033 67.8703 19.033H65.5137C65.3901 19.033 65.2818 18.9875 65.1889 18.8968C65.0964 18.8058 65.0499 18.6997 65.0499 18.5785V11.9585L63.046 15.5596C62.8852 15.8384 62.6687 15.9778 62.3965 15.9778H61.3946C61.1471 15.9778 60.9306 15.8384 60.7451 15.5596L58.7597 11.9585V18.5785C58.7597 18.7119 58.7133 18.8211 58.6207 18.9059C58.5278 18.9907 58.4135 19.033 58.2774 19.033H55.9394ZM71.3388 19.033C71.2151 19.033 71.1069 18.9875 71.0143 18.8968C70.9214 18.8058 70.875 18.6997 70.875 18.5785V6.77556C70.875 6.64241 70.9182 6.53007 71.0047 6.43932C71.0915 6.3483 71.2029 6.3028 71.3388 6.3028H77.0723C78.6433 6.3028 79.8123 6.61797 80.5793 7.24858C81.3461 7.87893 81.7298 8.77609 81.7298 9.94005C81.7298 10.522 81.5719 11.0252 81.2567 11.4493C80.9412 11.8737 80.5915 12.1829 80.2081 12.3769C80.7154 12.5951 81.1421 12.9558 81.4886 13.459C81.8348 13.9622 82.0081 14.5291 82.0081 15.1594C82.0081 16.3837 81.5966 17.3357 80.7741 18.0147C79.9516 18.6934 78.7733 19.033 77.2392 19.033H71.3388ZM76.6824 11.3404C77.1401 11.3404 77.4927 11.2192 77.7403 10.9766C77.9875 10.734 78.1115 10.419 78.1115 10.0311C78.1115 9.65503 77.9907 9.34896 77.7496 9.11258C77.5084 8.87593 77.1526 8.75787 76.6824 8.75787H74.3633V11.3404H76.6824ZM76.8496 16.578C77.3319 16.578 77.7063 16.4415 77.9722 16.1687C78.238 15.8962 78.3712 15.5597 78.3712 15.1595C78.3712 14.7473 78.2351 14.4048 77.9629 14.1318C77.6907 13.8592 77.3197 13.7227 76.8496 13.7227H74.3633V16.578H76.8496ZM84.4562 19.033C84.3323 19.033 84.2243 18.9875 84.1315 18.8968C84.0386 18.8058 83.9922 18.6997 83.9922 18.5785V6.77556C83.9922 6.64241 84.0357 6.53007 84.1222 6.43932C84.2087 6.3483 84.3201 6.3028 84.4562 6.3028H89.3363C91.167 6.3028 92.5893 6.73005 93.6039 7.58508C94.618 8.43959 95.1502 9.66726 95.1993 11.2676C95.2118 11.6192 95.2181 12.0859 95.2181 12.6679C95.2181 13.2499 95.2118 13.7104 95.1993 14.0501C95.0756 17.3719 93.1521 19.033 89.4288 19.033H84.4562ZM89.34 16.3058C90.119 16.3058 90.6942 16.124 91.0657 15.7602C91.4366 15.3967 91.6345 14.8145 91.6592 14.0143C91.6841 13.6627 91.6963 13.2082 91.6963 12.6504C91.6963 12.0926 91.6841 11.644 91.6592 11.3046C91.6345 10.5287 91.4209 9.95577 91.0192 9.58599C90.617 9.2162 90.0267 9.03131 89.2472 9.03131H87.4844V16.3058H89.34ZM96.6124 19.033C96.5134 19.033 96.4238 18.9937 96.3434 18.9147C96.2627 18.8359 96.2227 18.748 96.2227 18.651C96.2227 18.5784 96.2288 18.5238 96.2412 18.4874L100.564 6.83011C100.688 6.47852 100.936 6.30273 101.307 6.30273H104.201C104.573 6.30273 104.82 6.47852 104.943 6.83011L109.267 18.4874C109.279 18.5238 109.285 18.5784 109.285 18.651C109.285 18.748 109.245 18.8359 109.165 18.9147C109.085 18.9937 108.995 19.033 108.896 19.033H106.484C106.187 19.033 105.976 18.8996 105.853 18.6328L105.185 16.8689H100.323L99.6551 18.6328C99.5317 18.8996 99.3216 19.033 99.0247 19.033H96.6124ZM101.102 14.1416H104.404L102.753 9.50397L101.102 14.1416Z" fill="white"/>
<path fill-rule="evenodd" clip-rule="evenodd" d="M113.137 19.2146C113.001 19.2146 112.887 19.1722 112.793 19.0875C112.701 19.0027 112.654 18.8935 112.654 18.7601V9.44863H109.389C109.253 9.44863 109.138 9.40624 109.046 9.32147C108.953 9.23643 108.906 9.12747 108.906 8.99407V6.95714C108.906 6.82399 108.953 6.71165 109.046 6.6209C109.138 6.52988 109.253 6.48438 109.389 6.48438H119.464C119.6 6.48438 119.715 6.52988 119.807 6.6209C119.9 6.71165 119.946 6.82399 119.946 6.95714V8.99407C119.946 9.12747 119.9 9.23643 119.807 9.32147C119.715 9.40624 119.6 9.44863 119.464 9.44863H116.198V18.7601C116.198 18.8935 116.152 19.0027 116.059 19.0875C115.966 19.1722 115.852 19.2146 115.716 19.2146H113.137ZM122.042 19.2146C121.919 19.2146 121.81 19.1691 121.717 19.0784C121.625 18.9873 121.578 18.8812 121.578 18.7601V6.95714C121.578 6.82399 121.621 6.71165 121.708 6.6209C121.795 6.52988 121.906 6.48438 122.042 6.48438H130.8C130.936 6.48438 131.05 6.52988 131.143 6.6209C131.236 6.71165 131.282 6.82399 131.282 6.95714V8.75769C131.282 8.89109 131.236 9.00005 131.143 9.08483C131.05 9.16986 130.936 9.21225 130.8 9.21225H124.937V11.522H130.392C130.528 11.522 130.642 11.5675 130.735 11.6582C130.828 11.7492 130.874 11.8613 130.874 11.9947V13.6497C130.874 13.7831 130.828 13.8951 130.735 13.9862C130.642 14.0769 130.528 14.1227 130.392 14.1227H124.937V16.4868H130.948C131.084 16.4868 131.199 16.5323 131.292 16.623C131.384 16.714 131.431 16.8261 131.431 16.9595V18.7601C131.431 18.8935 131.384 19.0027 131.292 19.0875C131.199 19.1722 131.084 19.2146 130.948 19.2146H122.042ZM138.409 19.3965C137.209 19.3965 136.189 19.227 135.347 18.8874C134.506 18.548 133.869 18.0994 133.436 17.5414C133.003 16.9841 132.775 16.3777 132.75 15.7229C132.75 15.6139 132.79 15.5229 132.87 15.4501C132.951 15.3775 133.047 15.3411 133.158 15.3411H135.626C135.774 15.3411 135.895 15.3653 135.988 15.4139C136.081 15.4623 136.182 15.5471 136.294 15.6683C136.455 15.9593 136.705 16.1988 137.045 16.3868C137.386 16.5748 137.84 16.6687 138.409 16.6687C139.077 16.6687 139.59 16.5685 139.949 16.3688C140.308 16.1686 140.487 15.8929 140.487 15.5411C140.487 15.2868 140.394 15.0774 140.209 14.9139C140.023 14.75 139.727 14.6044 139.319 14.4773C138.91 14.3501 138.323 14.2076 137.555 14.05C136.059 13.759 134.939 13.3164 134.197 12.7222C133.455 12.1283 133.084 11.2795 133.084 10.1764C133.084 9.42458 133.297 8.7547 133.724 8.16674C134.151 7.57852 134.757 7.1211 135.542 6.7937C136.328 6.4663 137.24 6.30273 138.279 6.30273C139.368 6.30273 140.311 6.48763 141.109 6.85715C141.907 7.22719 142.519 7.68773 142.946 8.23929C143.373 8.79111 143.598 9.33356 143.623 9.86717C143.623 9.97613 143.586 10.0703 143.512 10.1491C143.437 10.2279 143.345 10.2671 143.234 10.2671H140.636C140.364 10.2671 140.153 10.1582 140.005 9.93973C139.93 9.68514 139.739 9.47008 139.43 9.29429C139.121 9.1185 138.737 9.03061 138.279 9.03061C137.76 9.03061 137.358 9.12162 137.073 9.3034C136.789 9.48517 136.646 9.75197 136.646 10.1036C136.646 10.4551 136.832 10.731 137.203 10.931C137.574 11.1313 138.267 11.3341 139.281 11.5403C140.444 11.7463 141.369 12.004 142.055 12.3132C142.742 12.6221 143.249 13.0226 143.577 13.5133C143.905 14.0045 144.068 14.626 144.068 15.3775C144.068 16.2019 143.827 16.9173 143.345 17.5234C142.862 18.1296 142.194 18.5932 141.341 18.9147C140.487 19.2361 139.51 19.3965 138.409 19.3965ZM149.191 19.2146C149.055 19.2146 148.94 19.1722 148.848 19.0875C148.755 19.0027 148.709 18.8935 148.709 18.7601V9.44863H145.443C145.307 9.44863 145.193 9.40624 145.1 9.32147C145.007 9.23643 144.961 9.12747 144.961 8.99407V6.95714C144.961 6.82399 145.007 6.71165 145.1 6.6209C145.193 6.52988 145.307 6.48438 145.443 6.48438H155.518C155.654 6.48438 155.769 6.52988 155.862 6.6209C155.954 6.71165 156.001 6.82399 156.001 6.95714V8.99407C156.001 9.12747 155.954 9.23643 155.862 9.32147C155.769 9.40624 155.654 9.44863 155.518 9.44863H152.253V18.7601C152.253 18.8935 152.206 19.0027 152.113 19.0875C152.021 19.1722 151.906 19.2146 151.771 19.2146H149.191Z" fill="white"/>
</svg>
