<svg width="195" height="45" viewBox="0 0 195 34" fill="none" xmlns="http://www.w3.org/2000/svg">
    <path d="M16.3231 19.2916H11.6906L14.9549 10.0511H22.8517L26.118 0.8125H11.4266C9.31893 0.8125 7.447 2.08423 6.78003 3.97187L0.251417 22.451C-0.246289 23.8596 0.0035714 25.4089 0.924428 26.6141C1.84528 27.8193 3.32228 28.5321 4.89802 28.5321H16.3251L19.5894 19.2916H16.3251H16.3231Z" fill="#3DDC91"/>
    <path d="M38.2522 11.9718C37.3313 10.7666 35.8543 10.0537 34.2786 10.0537H22.8515L19.5872 19.2942H27.484L24.2197 28.5347H16.3229L13.0586 37.7752H27.75C29.8577 37.7752 31.7296 36.5035 32.3966 34.6159L38.9252 16.1367C39.4229 14.7281 39.173 13.1789 38.2522 11.9737V11.9718Z" fill="#3DDC91"/>
    <path d="M57.7545 31.1322C53.0273 31.1322 49.7852 28.9651 49.7852 24.1234H53.5008C53.5008 27.1174 54.8186 27.9462 57.7565 27.9462H57.96C60.7629 27.9462 62.0465 27.1497 62.0465 24.9826C62.0465 22.4334 58.8386 21.8612 56.3722 21.0648C52.3865 19.7911 50.1579 18.1012 50.1922 14.6281C50.2607 10.773 53.3336 8.76562 57.3172 8.76562H57.5187C62.0787 8.76562 65.2181 10.9327 65.2181 15.8067H61.5024C61.5024 12.7804 60.2874 11.9516 57.5167 11.9516H57.3152C55.1209 11.9516 53.9723 12.7804 53.9723 14.6281C53.9723 16.8256 55.9994 17.4948 58.2945 18.1639C62.5159 19.4071 65.7581 20.9355 65.7581 24.9826C65.7581 29.0297 62.5845 31.1322 57.956 31.1322H57.7525H57.7545Z" fill="black"/>
    <path d="M82.2399 27.6974H84.7385L83.6363 30.8187H78.9312L78.6612 28.7163H78.2562C77.5127 30.2446 76.0619 31.1381 73.6962 31.1381H73.5612C70.3534 31.1381 68.2598 29.3227 68.2598 26.6461V26.4865C68.2598 23.8422 70.2183 22.4089 74.1698 21.9945L78.6612 21.4851V21.0383C78.6612 18.5538 77.5469 17.6927 75.7898 17.6927H75.6548C74.067 17.6927 72.7834 18.2668 72.6162 20.4319H68.834C69.2391 16.3544 72.0762 14.5371 75.7919 14.5371H75.9269C79.9125 14.5371 82.2419 16.6719 82.2419 21.0041V27.6955L82.2399 27.6974ZM74.2705 28.1441C77.5792 28.1441 78.6612 26.4237 78.6612 24.097V24.0323L74.744 24.4791C72.4812 24.7338 71.8062 25.4029 71.8062 26.3914V26.5188C71.8062 27.5377 72.6505 28.1441 74.1355 28.1441H74.2705Z" fill="black"/>
    <path d="M99.8684 14.8604V30.8226H96.1528V28.4958H95.782C94.972 30.1212 93.5192 31.1401 91.4256 31.1401H91.2906C88.1492 31.1401 86.0898 28.9426 86.0898 25.0228V14.8604H89.8378V24.7681C89.8378 26.9352 90.8513 27.859 92.4714 27.859H92.6064C94.9357 27.859 96.1528 26.3611 96.1528 24.0039V14.8604H99.8684Z" fill="black"/>
    <path d="M109.867 31.1401C105.746 31.1401 102.877 28.7183 102.877 23.8766V21.8368C102.877 16.9932 105.748 14.541 109.867 14.541H109.934C113.716 14.541 116.553 16.6758 116.722 20.6583H113.075C113.008 18.7459 111.892 17.6947 109.901 17.6947H109.835C107.572 17.6947 106.526 18.8733 106.526 21.8368V23.8766C106.526 26.8078 107.574 28.0187 109.835 28.0187H109.901C111.894 28.0187 113.008 26.9352 113.075 25.0552H116.722C116.553 29.0376 113.716 31.1401 109.934 31.1401H109.867Z" fill="black"/>
    <path d="M133.272 23.7815H122.6V23.8766C122.6 27.0302 123.614 28.1138 126.112 28.1138H126.316C128.004 28.1138 129.084 27.5093 129.389 26.0113H133.104C132.564 29.2924 129.931 31.1401 126.417 31.1401H126.112C121.857 31.1401 119.02 28.7183 119.02 23.8766V21.8368C119.02 16.9932 121.822 14.541 126.044 14.541H126.245C130.433 14.541 133.27 16.9951 133.27 21.8368V23.7796L133.272 23.7815ZM126.044 17.6015C123.747 17.6015 122.735 18.5254 122.598 21.297H129.691C129.556 18.5254 128.508 17.6015 126.245 17.6015H126.044Z" fill="black"/>
    <path d="M138.641 29.0003H148.773V30.8157H136.582V9.08789H138.641V29.0003Z" fill="black"/>
    <path d="M163.091 29.0349H165.624L164.993 30.8199H161.233L161.064 28.3354H160.693C159.883 30.0234 158.059 31.1393 155.289 31.1393H155.154C153.026 31.1393 150.088 30.1204 150.088 27.1245V26.9325C150.088 24.2236 152.417 23.1097 156.167 22.663L161.064 22.0261V21.0376C161.064 18.4562 159.915 16.8632 157.181 16.8632H157.046C154.309 16.8632 153.094 18.1691 152.959 20.3362H150.765C150.966 17.1825 153.229 15.0801 157.114 15.0801H157.181C161.301 15.0801 163.091 17.4049 163.091 21.165V29.0349ZM155.526 29.3543C158.364 29.3543 161.066 28.3031 161.066 23.8111V23.7161L156.473 24.2902C153.501 24.7046 152.151 25.406 152.151 26.9021V27.0941C152.151 28.4951 153.366 29.3562 155.393 29.3562H155.528L155.526 29.3543Z" fill="black"/>
    <path d="M174.744 31.138C172.482 31.138 170.692 29.9917 169.882 28.239H169.544V30.8205H167.484V7.87988H169.578V17.9473H169.882C170.727 16.1946 172.516 15.0807 174.744 15.0807H174.879C177.918 15.0807 180.384 17.2154 180.384 22.3442V23.8421C180.384 28.9405 177.886 31.138 174.914 31.138H174.744ZM174.305 29.3226C176.635 29.3226 178.291 27.952 178.291 23.9391V22.251C178.291 18.2362 176.637 16.898 174.305 16.898H174.17C171.873 16.898 169.578 18.2362 169.578 22.2815V23.9391C169.578 27.9862 171.875 29.3226 174.17 29.3226H174.305Z" fill="black"/>
    <path d="M188.926 31.1374C185.043 31.1374 182.678 29.13 182.678 25.9763H184.737C184.737 27.9514 185.986 29.3847 188.924 29.3847H189.126C191.963 29.3847 193.009 28.2689 193.009 26.7728C193.009 24.83 190.982 24.3833 188.888 23.8415C185.68 22.9804 183.147 22.2162 183.147 19.2222C183.147 16.7681 185.309 15.0801 188.584 15.0801H188.787C192.13 15.0801 194.562 16.9924 194.562 20.0815H192.535C192.535 18.2014 191.32 16.8309 188.787 16.8309H188.584C186.321 16.8309 185.138 17.8193 185.138 19.2203C185.138 21.0357 187.03 21.4825 189.089 22.0242C192.398 22.8854 194.999 23.5849 194.999 26.8032C194.999 29.5121 192.567 31.1355 189.124 31.1355H188.922L188.926 31.1374Z" fill="black"/>
</svg>
