<svg width="241" height="75" viewBox="0 0 241 75" fill="none" xmlns="http://www.w3.org/2000/svg">
<path d="M32.8623 0H23.0032V23.8261H32.8623V0Z" fill="black" style="fill:black;fill-opacity:1;"/>
<path d="M9.86035 0H0.00126147V13.5563L9.86035 23.8261V0Z" fill="black" style="fill:black;fill-opacity:1;"/>
<path d="M9.86035 23.8252H0.00126171V36.9706H9.86035V23.8252Z" fill="black" style="fill:black;fill-opacity:1;"/>
<path d="M23.0059 23.8252H9.8604L17.6655 33.6843H23.0059V23.8252Z" fill="black" style="fill:black;fill-opacity:1;"/>
<path d="M42.668 0.776367H67.2016V4.40427H56.9075V32.5205H52.9621V4.40427H42.668V0.776367Z" fill="black" style="fill:black;fill-opacity:1;"/>
<path d="M65.9761 20.9565C65.9761 18.5984 66.4296 16.5275 67.3366 14.7438C68.2738 12.9601 69.5738 11.5845 71.2366 10.617C72.8994 9.61937 74.804 9.12053 76.9505 9.12053C79.0668 9.12053 80.9412 9.5589 82.5738 10.4356C84.2063 11.3124 85.4912 12.5822 86.4284 14.2449C87.3656 15.9077 87.8645 17.8577 87.9249 20.0949C87.9249 20.4275 87.8947 20.9565 87.8342 21.6821H69.8761V21.9996C69.9366 24.267 70.6319 26.081 71.9622 27.4414C73.2924 28.8019 75.0308 29.4821 77.1773 29.4821C78.8401 29.4821 80.2459 29.074 81.3947 28.2577C82.5738 27.4112 83.3598 26.2472 83.7528 24.7658H87.5168C87.0633 27.124 85.9296 29.0589 84.1156 30.5705C82.3017 32.0519 80.0796 32.7926 77.4494 32.7926C75.1517 32.7926 73.1412 32.3088 71.418 31.3414C69.6947 30.3437 68.3494 28.953 67.382 27.1693C66.4447 25.3554 65.9761 23.2844 65.9761 20.9565ZM84.0703 18.5984C83.8889 16.6333 83.1482 15.1066 81.8482 14.0182C80.5784 12.9298 78.961 12.3856 76.9959 12.3856C75.2424 12.3856 73.7005 12.9601 72.3703 14.1089C71.0401 15.2577 70.2843 16.7542 70.1029 18.5984H84.0703Z" fill="black" style="fill:black;fill-opacity:1;"/>
<path d="M94.982 24.9019C95.0424 26.2926 95.6471 27.4263 96.7959 28.303C97.975 29.1798 99.4866 29.6182 101.331 29.6182C102.963 29.6182 104.278 29.3007 105.276 28.6658C106.304 28.0007 106.818 27.1391 106.818 26.081C106.818 25.174 106.576 24.4786 106.092 23.9949C105.609 23.5112 104.974 23.1786 104.188 22.9972C103.432 22.8158 102.344 22.6345 100.923 22.4531C98.9273 22.2112 97.2947 21.8938 96.025 21.5007C94.7552 21.1077 93.7273 20.4879 92.9413 19.6414C92.1552 18.7647 91.7622 17.5705 91.7622 16.0589C91.7622 14.6984 92.1401 13.4891 92.8959 12.431C93.682 11.3729 94.7401 10.5566 96.0703 9.98216C97.4006 9.37751 98.8971 9.07518 100.56 9.07518C103.281 9.07518 105.488 9.71007 107.181 10.9798C108.904 12.2496 109.856 14.0635 110.038 16.4217H106.319C106.168 15.2124 105.578 14.2147 104.551 13.4287C103.523 12.6426 102.238 12.2496 100.696 12.2496C99.1238 12.2496 97.854 12.5822 96.8866 13.2473C95.9192 13.8821 95.4355 14.7287 95.4355 15.7868C95.4355 16.5728 95.6622 17.1775 96.1157 17.6007C96.5692 18.024 97.1436 18.3112 97.8389 18.4624C98.5645 18.6135 99.6529 18.7798 101.104 18.9612C103.13 19.2031 104.792 19.5356 106.092 19.9589C107.423 20.3821 108.481 21.0624 109.267 21.9996C110.083 22.9368 110.491 24.2065 110.491 25.8089C110.491 27.1996 110.083 28.424 109.267 29.4821C108.451 30.5402 107.347 31.3565 105.956 31.9309C104.566 32.5054 103.024 32.7926 101.331 32.7926C98.3075 32.7926 95.8738 32.0972 94.0296 30.7065C92.2157 29.3158 91.2936 27.381 91.2634 24.9019H94.982Z" fill="black" style="fill:black;fill-opacity:1;"/>
<path d="M116.252 12.7938H112.079V9.39262H116.252V2.90776H119.97V9.39262H125.82V12.7938H119.97V26.4437C119.97 27.4112 120.152 28.1065 120.514 28.5298C120.907 28.9228 121.572 29.1193 122.51 29.1193H126.546V32.5205H122.283C120.106 32.5205 118.549 32.0368 117.612 31.0693C116.705 30.1019 116.252 28.5751 116.252 26.4891V12.7938Z" fill="black" style="fill:black;fill-opacity:1;"/>
<path d="M129.735 0.776367H134.724L145.97 27.124L157.081 0.776367H161.978V32.5205H158.124V7.48798L147.603 32.5205H144.111L133.59 7.48798V32.5205H129.735V0.776367Z" fill="black" style="fill:black;fill-opacity:1;"/>
<path d="M187.495 9.39262V32.5205H184.275L183.777 29.4368C182.023 31.674 179.559 32.7926 176.385 32.7926C173.634 32.7926 171.427 31.9461 169.764 30.253C168.101 28.56 167.27 25.8996 167.27 22.2717V9.39262H170.988V22.0449C170.988 24.4333 171.502 26.2623 172.53 27.5321C173.588 28.7716 175.085 29.3914 177.02 29.3914C179.136 29.3914 180.783 28.6356 181.963 27.124C183.172 25.6123 183.777 23.5565 183.777 20.9565V9.39262H187.495Z" fill="black" style="fill:black;fill-opacity:1;"/>
<path d="M202.392 32.5205L214.5 0.776367H219.171L231.234 32.5205H227.017L223.661 23.9496H209.829L206.474 32.5205H202.392ZM211.008 20.367H222.482L216.722 5.0845L211.008 20.367Z" fill="black" style="fill:black;fill-opacity:1;"/>
<path d="M234.826 0.776367H238.771V32.5205H234.826V0.776367Z" fill="black" style="fill:black;fill-opacity:1;"/>
<path d="M42.668 0.776367H67.2016V4.40427H56.9075V32.5205H52.9621V4.40427H42.668V0.776367Z" stroke="black" style="stroke:black;stroke-opacity:1;" stroke-width="0.857949"/>
<path d="M65.9761 20.9565C65.9761 18.5984 66.4296 16.5275 67.3366 14.7438C68.2738 12.9601 69.5738 11.5845 71.2366 10.617C72.8994 9.61937 74.804 9.12053 76.9505 9.12053C79.0668 9.12053 80.9412 9.5589 82.5738 10.4356C84.2063 11.3124 85.4912 12.5822 86.4284 14.2449C87.3656 15.9077 87.8645 17.8577 87.9249 20.0949C87.9249 20.4275 87.8947 20.9565 87.8342 21.6821H69.8761V21.9996C69.9366 24.267 70.6319 26.081 71.9622 27.4414C73.2924 28.8019 75.0308 29.4821 77.1773 29.4821C78.8401 29.4821 80.2459 29.074 81.3947 28.2577C82.5738 27.4112 83.3598 26.2472 83.7528 24.7658H87.5168C87.0633 27.124 85.9296 29.0589 84.1156 30.5705C82.3017 32.0519 80.0796 32.7926 77.4494 32.7926C75.1517 32.7926 73.1412 32.3088 71.418 31.3414C69.6947 30.3437 68.3494 28.953 67.382 27.1693C66.4447 25.3554 65.9761 23.2844 65.9761 20.9565ZM84.0703 18.5984C83.8889 16.6333 83.1482 15.1066 81.8482 14.0182C80.5784 12.9298 78.961 12.3856 76.9959 12.3856C75.2424 12.3856 73.7005 12.9601 72.3703 14.1089C71.0401 15.2577 70.2843 16.7542 70.1029 18.5984H84.0703Z" stroke="black" style="stroke:black;stroke-opacity:1;" stroke-width="0.857949"/>
<path d="M94.982 24.9019C95.0424 26.2926 95.6471 27.4263 96.7959 28.303C97.975 29.1798 99.4866 29.6182 101.331 29.6182C102.963 29.6182 104.278 29.3007 105.276 28.6658C106.304 28.0007 106.818 27.1391 106.818 26.081C106.818 25.174 106.576 24.4786 106.092 23.9949C105.609 23.5112 104.974 23.1786 104.188 22.9972C103.432 22.8158 102.344 22.6345 100.923 22.4531C98.9273 22.2112 97.2947 21.8938 96.025 21.5007C94.7552 21.1077 93.7273 20.4879 92.9413 19.6414C92.1552 18.7647 91.7622 17.5705 91.7622 16.0589C91.7622 14.6984 92.1401 13.4891 92.8959 12.431C93.682 11.3729 94.7401 10.5566 96.0703 9.98216C97.4006 9.37751 98.8971 9.07518 100.56 9.07518C103.281 9.07518 105.488 9.71007 107.181 10.9798C108.904 12.2496 109.856 14.0635 110.038 16.4217H106.319C106.168 15.2124 105.578 14.2147 104.551 13.4287C103.523 12.6426 102.238 12.2496 100.696 12.2496C99.1238 12.2496 97.854 12.5822 96.8866 13.2473C95.9192 13.8821 95.4355 14.7287 95.4355 15.7868C95.4355 16.5728 95.6622 17.1775 96.1157 17.6007C96.5692 18.024 97.1436 18.3112 97.8389 18.4624C98.5645 18.6135 99.6529 18.7798 101.104 18.9612C103.13 19.2031 104.792 19.5356 106.092 19.9589C107.423 20.3821 108.481 21.0624 109.267 21.9996C110.083 22.9368 110.491 24.2065 110.491 25.8089C110.491 27.1996 110.083 28.424 109.267 29.4821C108.451 30.5402 107.347 31.3565 105.956 31.9309C104.566 32.5054 103.024 32.7926 101.331 32.7926C98.3075 32.7926 95.8738 32.0972 94.0296 30.7065C92.2157 29.3158 91.2936 27.381 91.2634 24.9019H94.982Z" stroke="black" style="stroke:black;stroke-opacity:1;" stroke-width="0.857949"/>
<path d="M116.252 12.7938H112.079V9.39262H116.252V2.90776H119.97V9.39262H125.82V12.7938H119.97V26.4437C119.97 27.4112 120.152 28.1065 120.514 28.5298C120.907 28.9228 121.572 29.1193 122.51 29.1193H126.546V32.5205H122.283C120.106 32.5205 118.549 32.0368 117.612 31.0693C116.705 30.1019 116.252 28.5751 116.252 26.4891V12.7938Z" stroke="black" style="stroke:black;stroke-opacity:1;" stroke-width="0.857949"/>
<path d="M129.735 0.776367H134.724L145.97 27.124L157.081 0.776367H161.978V32.5205H158.124V7.48798L147.603 32.5205H144.111L133.59 7.48798V32.5205H129.735V0.776367Z" stroke="black" style="stroke:black;stroke-opacity:1;" stroke-width="0.857949"/>
<path d="M187.495 9.39262V32.5205H184.275L183.777 29.4368C182.023 31.674 179.559 32.7926 176.385 32.7926C173.634 32.7926 171.427 31.9461 169.764 30.253C168.101 28.56 167.27 25.8996 167.27 22.2717V9.39262H170.988V22.0449C170.988 24.4333 171.502 26.2623 172.53 27.5321C173.588 28.7716 175.085 29.3914 177.02 29.3914C179.136 29.3914 180.783 28.6356 181.963 27.124C183.172 25.6123 183.777 23.5565 183.777 20.9565V9.39262H187.495Z" stroke="black" style="stroke:black;stroke-opacity:1;" stroke-width="0.857949"/>
<path d="M202.392 32.5205L214.5 0.776367H219.171L231.234 32.5205H227.017L223.661 23.9496H209.829L206.474 32.5205H202.392ZM211.008 20.367H222.482L216.722 5.0845L211.008 20.367Z" stroke="black" style="stroke:black;stroke-opacity:1;" stroke-width="0.857949"/>
<path d="M234.826 0.776367H238.771V32.5205H234.826V0.776367Z" stroke="black" style="stroke:black;stroke-opacity:1;" stroke-width="0.857949"/>
<path d="M0 52.5H9.02485V54.1597H1.80497V59.0145H7.78004V60.6742H1.80497V67.0227H0V52.5Z" fill="black" style="fill:black;fill-opacity:1;"/>
<path d="M14.7973 67.1472C13.7738 67.1472 12.861 66.919 12.0587 66.4626C11.2704 66.0062 10.6549 65.3699 10.2123 64.5539C9.76968 63.7378 9.54838 62.7973 9.54838 61.7323C9.54838 60.6673 9.76968 59.7268 10.2123 58.9108C10.6549 58.0947 11.2704 57.4585 12.0587 57.0021C12.861 56.5456 13.7738 56.3174 14.7973 56.3174C15.8208 56.3174 16.7268 56.5456 17.5151 57.0021C18.3174 57.4585 18.9398 58.0947 19.3824 58.9108C19.825 59.7268 20.0463 60.6673 20.0463 61.7323C20.0463 62.7973 19.825 63.7378 19.3824 64.5539C18.9398 65.3699 18.3174 66.0062 17.5151 66.4626C16.7268 66.919 15.8208 67.1472 14.7973 67.1472ZM14.7973 65.6327C15.4889 65.6327 16.0974 65.4667 16.623 65.1348C17.1625 64.8028 17.5774 64.3395 17.8678 63.7448C18.1583 63.15 18.3035 62.4792 18.3035 61.7323C18.3035 60.9854 18.1583 60.3146 17.8678 59.7199C17.5774 59.1251 17.1625 58.6618 16.623 58.3298C16.0974 57.9979 15.4889 57.8319 14.7973 57.8319C14.1058 57.8319 13.4903 57.9979 12.9509 58.3298C12.4253 58.6618 12.0172 59.1251 11.7268 59.7199C11.4363 60.3146 11.2911 60.9854 11.2911 61.7323C11.2911 62.4792 11.4363 63.15 11.7268 63.7448C12.0172 64.3395 12.4253 64.8028 12.9509 65.1348C13.4903 65.4667 14.1058 65.6327 14.7973 65.6327Z" fill="black" style="fill:black;fill-opacity:1;"/>
<path d="M27.3705 56.4419V58.1016H26.5199C25.5102 58.1016 24.7841 58.4405 24.3415 59.1182C23.9127 59.796 23.6983 60.6327 23.6983 61.6286V67.0227H21.9971V56.4419H23.4701L23.6983 58.0394C24.0026 57.5553 24.3968 57.168 24.8809 56.8776C25.365 56.5871 26.0358 56.4419 26.8933 56.4419H27.3705Z" fill="black" style="fill:black;fill-opacity:1;"/>
<path d="M40.7311 56.3174C41.9206 56.3174 42.8819 56.6909 43.6149 57.4377C44.3618 58.1846 44.7352 59.3464 44.7352 60.9232V67.0227H43.034V61.0269C43.034 60.0034 42.8127 59.222 42.3701 58.6825C41.9414 58.1431 41.3259 57.8734 40.5237 57.8734C39.6385 57.8734 38.94 58.1846 38.4282 58.807C37.9303 59.4294 37.6813 60.28 37.6813 61.3589V67.0227H35.9801V61.0269C35.9801 60.0034 35.7588 59.222 35.3162 58.6825C34.8736 58.1431 34.2443 57.8734 33.4283 57.8734C32.5707 57.8734 31.8861 58.2054 31.3743 58.8693C30.8764 59.5193 30.6274 60.3769 30.6274 61.4419V67.0227H28.9262V56.4419H30.3992L30.6274 57.8942C31.3882 56.843 32.4186 56.3174 33.7187 56.3174C34.4794 56.3174 35.1502 56.4903 35.7311 56.8361C36.3259 57.168 36.7685 57.6659 37.0589 58.3298C37.8197 56.9882 39.0437 56.3174 40.7311 56.3174Z" fill="black" style="fill:black;fill-opacity:1;"/>
<path d="M46.5441 61.7323C46.5441 60.6535 46.7516 59.706 47.1665 58.89C47.5953 58.074 48.19 57.4446 48.9507 57.0021C49.7115 56.5456 50.5828 56.3174 51.5648 56.3174C52.533 56.3174 53.3905 56.518 54.1374 56.9191C54.8843 57.3202 55.4721 57.9011 55.9009 58.6618C56.3297 59.4225 56.5579 60.3146 56.5856 61.3381C56.5856 61.4903 56.5717 61.7323 56.5441 62.0643H48.3283V62.2095C48.356 63.2468 48.6741 64.0767 49.2827 64.6991C49.8913 65.3215 50.6866 65.6327 51.6686 65.6327C52.4293 65.6327 53.0724 65.446 53.598 65.0725C54.1374 64.6853 54.497 64.1528 54.6769 63.475H56.3988C56.1914 64.5539 55.6727 65.4391 54.8428 66.1306C54.013 66.8084 52.9964 67.1472 51.793 67.1472C50.7419 67.1472 49.8221 66.9259 49.0337 66.4833C48.2453 66.0269 47.6299 65.3907 47.1873 64.5746C46.7585 63.7448 46.5441 62.7973 46.5441 61.7323ZM54.8221 60.6535C54.7391 59.7545 54.4002 59.056 53.8055 58.5581C53.2246 58.0601 52.4846 57.8112 51.5856 57.8112C50.7834 57.8112 50.078 58.074 49.4694 58.5996C48.8608 59.1251 48.5151 59.8098 48.4321 60.6535H54.8221Z" fill="black" style="fill:black;fill-opacity:1;"/>
<path d="M63.9003 56.4419V58.1016H63.0496C62.04 58.1016 61.3138 58.4405 60.8712 59.1182C60.4425 59.796 60.2281 60.6327 60.2281 61.6286V67.0227H58.5268V56.4419H59.9999L60.2281 58.0394C60.5324 57.5553 60.9265 57.168 61.4106 56.8776C61.8947 56.5871 62.5655 56.4419 63.4231 56.4419H63.9003Z" fill="black" style="fill:black;fill-opacity:1;"/>
<path d="M65.4559 52.5H67.1572V67.0227H65.4559V52.5Z" fill="black" style="fill:black;fill-opacity:1;"/>
<path d="M70.2347 56.4419L73.4919 65.0725L76.6454 56.4419H78.4504L73.5749 68.807C73.3259 69.4432 73.1046 69.9204 72.911 70.2385C72.7174 70.5566 72.4753 70.7917 72.1849 70.9439C71.8944 71.096 71.5071 71.1721 71.023 71.1721H68.9899V69.6161H70.5044C70.8363 69.6161 71.0853 69.5815 71.2513 69.5124C71.4172 69.4432 71.5486 69.3256 71.6454 69.1597C71.7561 69.0075 71.8875 68.7447 72.0396 68.3713L72.5791 67.1057L68.4297 56.4419H70.2347Z" fill="black" style="fill:black;fill-opacity:1;"/>
<path d="M97.7891 58.4764C98.0892 58.2663 98.4873 58.2474 98.8096 58.4305L99.165 58.6346L109.754 64.6561V64.0662C109.754 63.5803 110.289 63.2758 110.717 63.5184L112.766 64.6805C112.964 64.7932 113.087 65.0016 113.087 65.2274V67.1502C113.087 67.315 113.022 67.4733 112.904 67.5916L111.938 68.5613C111.576 69.017 111.044 69.1985 110.569 68.9295L102.954 64.5848L102.952 72.782C102.979 73.0895 102.85 73.3903 102.604 73.5848C102.365 73.7757 102.364 73.7759 101.2 74.701C101.026 74.8601 100.798 74.949 100.559 74.949C100.038 74.949 99.6152 74.5331 99.6152 74.0203L99.6162 62.6854L98.333 61.9559L97.6846 62.3231C97.6536 62.3444 97.6643 62.338 97.0098 62.7098C96.5482 62.9755 95.9667 62.8352 95.7012 62.3846C95.6381 62.2773 95.6383 62.2768 95.3398 61.7694L94.9814 61.1619C94.713 60.7063 94.8564 60.1356 95.3145 59.8748C95.4265 59.8115 95.4265 59.8109 95.9443 59.5184L97.5068 58.6336L97.7891 58.4764ZM101.32 48.7254C101.629 48.7402 101.935 48.8395 102.148 48.9891L106.898 51.6912L107.162 51.8367C107.187 51.8507 108.771 52.752 111.99 54.5838L112.254 54.7322C112.512 54.8791 112.723 55.0886 112.869 55.3416C113.014 55.5922 113.088 55.8778 113.086 56.1619L113.087 61.4256C113.087 61.9118 112.552 62.2157 112.124 61.9725L110.074 60.8065C109.876 60.6936 109.754 60.485 109.754 60.2596V57.0975L105.581 54.7225C105.545 54.7048 105.463 54.6593 105.238 54.5311L101.241 52.2537L97.083 54.618C97.0435 54.6436 97.043 54.6433 97.0195 54.658C97.0051 54.6668 96.7246 54.827 96.7246 54.827L92.7295 57.0975V66.7869L96.9043 69.1619C96.931 69.1751 96.9889 69.2071 97.2549 69.3582L97.3408 69.4334L97.4121 69.5272C97.57 69.6459 97.664 69.8313 97.6641 70.0291V72.3504C97.664 72.842 97.1181 73.1454 96.6836 72.8875L95.5869 72.1942L95.3242 72.0477C95.2976 72.0327 93.7794 71.1692 90.4922 69.2986L90.2305 69.1512C89.9725 69.0046 89.7605 68.7949 89.6143 68.5418C89.4697 68.2907 89.3947 68.0056 89.3975 67.7225L89.3965 61.9422V56.1522C89.3966 55.845 89.4843 55.5447 89.6484 55.2869C89.8109 55.0282 90.0466 54.8163 90.291 54.7L95.0566 51.9891L95.3164 51.8397C95.403 51.7909 95.4031 51.7899 95.5791 51.6912L100.144 49.0985L100.41 48.9432C100.688 48.7858 101.002 48.7109 101.32 48.7254Z" fill="black" style="fill:black;fill-opacity:1;"/>
<path fill-rule="evenodd" clip-rule="evenodd" d="M119.928 67.1994C119.808 67.1994 119.703 67.1552 119.613 67.067C119.523 66.9786 119.478 66.8756 119.478 66.7579V55.2774C119.478 55.1481 119.523 55.042 119.613 54.9597C119.703 54.8771 119.808 54.8359 119.928 54.8359H122.451C122.583 54.8359 122.691 54.8771 122.776 54.9597C122.86 55.042 122.902 55.1481 122.902 55.2774V64.4266H128.308C128.44 64.4266 128.551 64.4705 128.641 64.5589C128.731 64.6473 128.776 64.7562 128.776 64.8857V66.7579C128.776 66.8875 128.731 66.9935 128.641 67.0759C128.551 67.1582 128.44 67.1994 128.308 67.1994H119.928ZM129.586 67.1994C129.49 67.1994 129.403 67.1612 129.325 67.0845C129.246 67.0079 129.207 66.9226 129.207 66.8284C129.207 66.7579 129.214 66.7049 129.226 66.6695L133.424 55.3481C133.544 55.0067 133.785 54.8359 134.145 54.8359H136.956C137.316 54.8359 137.557 55.0067 137.677 55.3481L141.876 66.6695C141.888 66.7049 141.894 66.7579 141.894 66.8284C141.894 66.9226 141.855 67.0079 141.777 67.0845C141.699 67.1612 141.611 67.1994 141.515 67.1994H139.173C138.884 67.1994 138.68 67.0698 138.56 66.8107L137.911 65.0976H133.19L132.541 66.8107C132.421 67.0698 132.217 67.1994 131.929 67.1994H129.586ZM133.951 62.4501H137.158L135.554 57.9461L133.951 62.4501ZM143.734 67.1994C143.601 67.1994 143.49 67.1582 143.4 67.0759C143.31 66.9935 143.265 66.8875 143.265 66.7579V55.2951C143.265 55.1658 143.31 55.0567 143.4 54.9685C143.49 54.8801 143.601 54.8359 143.734 54.8359H145.77C146.07 54.8359 146.287 54.9655 146.419 55.2244L149.518 60.6643L152.636 55.2244C152.768 54.9655 152.984 54.8359 153.284 54.8359H155.321C155.453 54.8359 155.564 54.8801 155.654 54.9685C155.744 55.0567 155.789 55.1658 155.789 55.2951V66.7579C155.789 66.8875 155.744 66.9935 155.654 67.0759C155.564 67.1582 155.453 67.1994 155.321 67.1994H153.032C152.912 67.1994 152.807 67.1552 152.717 67.067C152.627 66.9786 152.582 66.8756 152.582 66.7579V60.3287L150.635 63.826C150.479 64.0968 150.269 64.2321 150.005 64.2321H149.032C148.791 64.2321 148.581 64.0968 148.401 63.826L146.473 60.3287V66.7579C146.473 66.8875 146.428 66.9935 146.338 67.0759C146.248 67.1582 146.136 67.1994 146.004 67.1994H143.734ZM158.689 67.1994C158.569 67.1994 158.464 67.1552 158.374 67.067C158.283 66.9786 158.238 66.8756 158.238 66.7579V55.2951C158.238 55.1658 158.28 55.0567 158.364 54.9685C158.449 54.8801 158.557 54.8359 158.689 54.8359H164.257C165.783 54.8359 166.918 55.142 167.663 55.7545C168.408 56.3667 168.78 57.238 168.78 58.3684C168.78 58.9336 168.627 59.4223 168.321 59.8342C168.014 60.2464 167.675 60.5466 167.303 60.735C167.795 60.9469 168.21 61.2972 168.546 61.7859C168.882 62.2746 169.051 62.8252 169.051 63.4374C169.051 64.6264 168.651 65.551 167.852 66.2104C167.053 66.8695 165.909 67.1994 164.419 67.1994H158.689ZM163.883 59.7275C164.327 59.7275 164.67 59.6098 164.91 59.3743C165.15 59.1388 165.27 58.8331 165.27 58.4565C165.27 58.0915 165.153 57.7943 164.919 57.5649C164.685 57.3352 164.339 57.2206 163.883 57.2206H161.632V59.7275H163.883ZM164.045 64.8114C164.513 64.8114 164.877 64.6788 165.135 64.414C165.393 64.1495 165.522 63.8228 165.522 63.4343C165.522 63.0342 165.39 62.7018 165.126 62.4367C164.862 62.1722 164.502 62.0396 164.045 62.0396H161.632V64.8114H164.045ZM171.436 67.1994C171.316 67.1994 171.211 67.1552 171.121 67.067C171.031 66.9786 170.986 66.8756 170.986 66.7579V55.2951C170.986 55.1658 171.028 55.0567 171.112 54.9685C171.196 54.8801 171.304 54.8359 171.436 54.8359H176.176C177.954 54.8359 179.335 55.2509 180.321 56.0813C181.305 56.9112 181.822 58.1035 181.87 59.6577C181.882 59.9991 181.888 60.4524 181.888 61.0177C181.888 61.5829 181.882 62.0301 181.87 62.36C181.75 65.5861 179.882 67.1994 176.266 67.1994H171.436ZM176.175 64.5505C176.932 64.5505 177.49 64.374 177.851 64.0206C178.211 63.6676 178.403 63.1021 178.427 62.325C178.452 61.9836 178.463 61.5421 178.463 61.0004C178.463 60.4586 178.452 60.023 178.427 59.6934C178.403 58.9398 178.196 58.3834 177.806 58.0243C177.415 57.6652 176.842 57.4856 176.085 57.4856H174.373V64.5505H176.175ZM183.239 67.1994C183.143 67.1994 183.056 67.1612 182.978 67.0845C182.9 67.0079 182.861 66.9226 182.861 66.8284C182.861 66.7579 182.867 66.7049 182.879 66.6695L187.077 55.3481C187.198 55.0067 187.438 54.8359 187.798 54.8359H190.609C190.97 54.8359 191.21 55.0067 191.33 55.3481L195.529 66.6695C195.541 66.7049 195.547 66.7579 195.547 66.8284C195.547 66.9226 195.508 67.0079 195.43 67.0845C195.352 67.1612 195.265 67.1994 195.168 67.1994H192.826C192.538 67.1994 192.333 67.0698 192.213 66.8107L191.564 65.0976H186.843L186.194 66.8107C186.074 67.0698 185.87 67.1994 185.582 67.1994H183.239ZM187.599 62.4501H190.807L189.203 57.9461L187.599 62.4501Z" fill="black" style="fill:black;fill-opacity:1;"/>
<path fill-rule="evenodd" clip-rule="evenodd" d="M199.287 67.3758C199.155 67.3758 199.044 67.3346 198.954 67.2523C198.864 67.17 198.819 67.0639 198.819 66.9343V57.8912H195.647C195.515 57.8912 195.404 57.85 195.314 57.7677C195.224 57.6851 195.179 57.5793 195.179 57.4498V55.4715C195.179 55.3422 195.224 55.2331 195.314 55.145C195.404 55.0566 195.515 55.0124 195.647 55.0124H205.432C205.564 55.0124 205.676 55.0566 205.766 55.145C205.856 55.2331 205.901 55.3422 205.901 55.4715V57.4498C205.901 57.5793 205.856 57.6851 205.766 57.7677C205.676 57.85 205.564 57.8912 205.432 57.8912H202.261V66.9343C202.261 67.0639 202.216 67.17 202.126 67.2523C202.035 67.3346 201.924 67.3758 201.792 67.3758H199.287ZM207.942 67.3758C207.822 67.3758 207.717 67.3316 207.627 67.2435C207.537 67.1551 207.492 67.052 207.492 66.9343V55.4715C207.492 55.3422 207.534 55.2331 207.618 55.145C207.702 55.0566 207.81 55.0124 207.942 55.0124H216.448C216.58 55.0124 216.691 55.0566 216.781 55.145C216.871 55.2331 216.917 55.3422 216.917 55.4715V57.2202C216.917 57.3497 216.871 57.4556 216.781 57.5379C216.691 57.6205 216.58 57.6616 216.448 57.6616H210.754V59.9048H216.052C216.184 59.9048 216.295 59.949 216.385 60.0371C216.475 60.1255 216.52 60.2344 216.52 60.3639V61.9712C216.52 62.1007 216.475 62.2096 216.385 62.298C216.295 62.3861 216.184 62.4306 216.052 62.4306H210.754V64.7265H216.592C216.724 64.7265 216.835 64.7707 216.926 64.8589C217.016 64.9473 217.061 65.0561 217.061 65.1857V66.9343C217.061 67.0639 217.016 67.17 216.926 67.2523C216.835 67.3346 216.724 67.3758 216.592 67.3758H207.942ZM223.835 67.5524C222.67 67.5524 221.679 67.3878 220.862 67.0579C220.045 66.7284 219.426 66.2927 219.006 65.7507C218.585 65.2095 218.363 64.6206 218.339 63.9846C218.339 63.8788 218.378 63.7904 218.456 63.7197C218.534 63.6492 218.627 63.6139 218.735 63.6139H221.132C221.276 63.6139 221.393 63.6374 221.483 63.6846C221.574 63.7316 221.672 63.8139 221.781 63.9316C221.937 64.2142 222.18 64.4468 222.51 64.6294C222.841 64.812 223.282 64.9032 223.835 64.9032C224.484 64.9032 224.982 64.8059 225.331 64.612C225.679 64.4175 225.853 64.1498 225.853 63.8081C225.853 63.5611 225.763 63.3578 225.583 63.1989C225.403 63.0398 225.115 62.8984 224.718 62.7749C224.322 62.6514 223.751 62.513 223.006 62.36C221.553 62.0774 220.465 61.6475 219.744 61.0704C219.024 60.4936 218.663 59.6693 218.663 58.598C218.663 57.8678 218.87 57.2172 219.285 56.6462C219.699 56.075 220.288 55.6307 221.051 55.3128C221.814 54.9948 222.7 54.8359 223.709 54.8359C224.766 54.8359 225.682 55.0155 226.457 55.3744C227.232 55.7338 227.827 56.181 228.241 56.7167C228.655 57.2526 228.875 57.7794 228.899 58.2977C228.899 58.4035 228.863 58.4949 228.79 58.5714C228.718 58.648 228.628 58.6861 228.52 58.6861H225.998C225.733 58.6861 225.529 58.5803 225.385 58.3681C225.312 58.1209 225.127 57.912 224.826 57.7413C224.526 57.5706 224.153 57.4852 223.709 57.4852C223.204 57.4852 222.814 57.5736 222.538 57.7501C222.261 57.9267 222.123 58.1858 222.123 58.5272C222.123 58.8687 222.304 59.1366 222.664 59.3309C223.024 59.5253 223.697 59.7223 224.682 59.9226C225.811 60.1226 226.709 60.3729 227.376 60.6732C228.043 60.9732 228.535 61.3621 228.854 61.8387C229.172 62.3158 229.331 62.9194 229.331 63.6492C229.331 64.4498 229.097 65.1446 228.628 65.7333C228.16 66.322 227.511 66.7723 226.682 67.0845C225.853 67.3966 224.904 67.5524 223.835 67.5524V67.5524ZM234.303 67.3758C234.171 67.3758 234.06 67.3346 233.97 67.2523C233.88 67.17 233.834 67.0639 233.834 66.9343V57.8912H230.663C230.531 57.8912 230.42 57.85 230.33 57.7677C230.24 57.6851 230.195 57.5793 230.195 57.4498V55.4715C230.195 55.3422 230.24 55.2331 230.33 55.145C230.42 55.0566 230.531 55.0124 230.663 55.0124H240.448C240.58 55.0124 240.691 55.0566 240.781 55.145C240.872 55.2331 240.917 55.3422 240.917 55.4715V57.4498C240.917 57.5793 240.872 57.6851 240.781 57.7677C240.691 57.85 240.58 57.8912 240.448 57.8912H237.276V66.9343C237.276 67.0639 237.231 67.17 237.141 67.2523C237.051 67.3346 236.94 67.3758 236.808 67.3758H234.303Z" fill="black" style="fill:black;fill-opacity:1;"/>
</svg>
