<?xml version="1.0" encoding="UTF-8"?>
<svg width="64px" height="64px" viewBox="0 0 64 64" version="1.1" xmlns="http://www.w3.org/2000/svg" xmlns:xlink="http://www.w3.org/1999/xlink">
    <title>Logo Regular</title>
    <g id="Logo-Regular" stroke="none" stroke-width="1" fill="none" fill-rule="evenodd">
        <rect id="Rectangle" fill="#EA5906" x="0" y="0" width="64" height="64" rx="5"></rect>
        <path d="M8,16 L8,48 L6,48 L6,16 L8,16 Z M43,16 C51.836556,16 59,23.163444 59,32 C59,40.836556 51.836556,48 43,48 C34.163444,48 27,40.836556 27,32 C27,23.163444 34.163444,16 43,16 Z M27,16 L14.106,47.9992078 L11.999,47.9992078 L24.894,16 L27,16 Z M43,18 C35.2680135,18 29,24.2680135 29,32 C29,39.7319865 35.2680135,46 43,46 C50.7319865,46 57,39.7319865 57,32 C57,24.2680135 50.7319865,18 43,18 Z" id="Combined-Shape" fill="#FFFFFF"></path>
    </g>
</svg>